# xmcd
#
# Track frame offsets:
#	150
#	13300
#	30570
#	45510
#	58923
#	72423
#	89286
#	102434
#	121799
#	139442
#	152910
#	170535
#	186648
#	206203
#	222896
#	241456
#	254954
#	266617
#	279455
#	296918
#
# Disc length: 4220 seconds
#
# Revision: 1
# Processed by: cddbd v1.5.2PL0 Copyright (c) Steve Scherf et al.
# Submitted via: audiograbber 1.83.01
#
DISCID=4b107a14
DTITLE=Various Artist - Halland's Country Hits Volume 1
DYEAR=1900
DGENRE=
TTITLE0=Suzy Bogguss - Outbound Plane
TTITLE1=Boy Howdy - A Cowboy's Born With A Broken Heart
TTITLE2=Brooks and Dunn - Boot Scootin' Boogie
TTITLE3=Brooks and Dunn - Brand New Man
TTITLE4=Brooks and Dunn - Hard Workin' Man
TTITLE5=Brooks and Dunn - Lost And Found
TTITLE6=Brooks and Dunn - My Next Broken Heart
TTITLE7=Brooks and Dunn - Neon Moon
TTITLE8=Brooks and Dunn - She Used To Be Mine
TTITLE9=Brooks and Dunn - We'll Burn That Bridge
TTITLE10=Garth Brooks - Ain't Going Down (Till The Sun...)
TTITLE11=Garth Brooks - American Honky-Tonk Bar Association
TTITLE12=Garth Brooks - Friends In Low Places
TTITLE13=Garth Brooks - If Tomorrow Never Comes
TTITLE14=Garth Brooks - Learning To Live Again
TTITLE15=Garth Brooks - Much Too Long (To Feel This Old)
TTITLE16=Garth Brooks - Not Counting You
TTITLE17=Garth Brooks - Papa Loved Mama
TTITLE18=Garth Brooks - Rodeo
TTITLE19=Garth Brooks - Shameless
EXTD=
EXTT0=
EXTT1=
EXTT2=
EXTT3=
EXTT4=
EXTT5=
EXTT6=
EXTT7=
EXTT8=
EXTT9=
EXTT10=
EXTT11=
EXTT12=
EXTT13=
EXTT14=
EXTT15=
EXTT16=
EXTT17=
EXTT18=
EXTT19=
PLAYORDER=
